<svg width="60" height="43" viewBox="0 0 60 43" fill="none" xmlns="http://www.w3.org/2000/svg">
<path d="M29.6318 0.179688C34.0212 0.179688 38.4173 1.8265 41.7663 5.13332C44.6086 7.93986 46.2457 11.488 46.6758 15.1464C53.6648 15.773 59.1318 21.567 59.1318 28.6313C59.1318 36.1138 52.9887 42.1797 45.4109 42.1797H11.7946C5.33344 42.1797 0.131836 37.0435 0.131836 30.6636C0.131836 24.2836 5.33344 19.1474 11.7946 19.1474H12.6093C12.0048 14.1654 13.6469 8.95654 17.5189 5.13332C20.8677 1.8265 25.2424 0.179688 29.6318 0.179688ZM29.6318 14.4055C29.2677 14.4041 29.012 14.4717 28.7099 14.7442L21.1634 21.5184C20.6266 21.9941 20.5279 22.9223 21.0563 23.4448C21.5658 23.9488 22.4746 24.0096 23.0072 23.5294L28.2597 18.8087V33.3732C28.2597 34.1215 28.8739 34.7281 29.6318 34.7281C30.3898 34.7281 31.0039 34.1215 31.0039 33.3732V18.8087L36.2564 23.5294C36.7891 24.0096 37.7233 23.9727 38.2074 23.4448C38.6915 22.9168 38.6641 22.003 38.1003 21.5184L30.5537 14.7442C30.3577 14.5669 29.9988 14.4123 29.6318 14.4055Z" fill="#8D9DA8"/>
<path d="M29.6318 0.179688C34.0212 0.179688 38.4173 1.8265 41.7663 5.13332C44.6086 7.93986 46.2457 11.488 46.6758 15.1464C53.6648 15.773 59.1318 21.567 59.1318 28.6313C59.1318 36.1138 52.9887 42.1797 45.4109 42.1797H11.7946C5.33344 42.1797 0.131836 37.0435 0.131836 30.6636C0.131836 24.2836 5.33344 19.1474 11.7946 19.1474H12.6093C12.0048 14.1654 13.6469 8.95654 17.5189 5.13332C20.8677 1.8265 25.2424 0.179688 29.6318 0.179688ZM29.6318 14.4055C29.2677 14.4041 29.012 14.4717 28.7099 14.7442L21.1634 21.5184C20.6266 21.9941 20.5279 22.9223 21.0563 23.4448C21.5658 23.9488 22.4746 24.0096 23.0072 23.5294L28.2597 18.8087V33.3732C28.2597 34.1215 28.8739 34.7281 29.6318 34.7281C30.3898 34.7281 31.0039 34.1215 31.0039 33.3732V18.8087L36.2564 23.5294C36.7891 24.0096 37.7233 23.9727 38.2074 23.4448C38.6915 22.9168 38.6641 22.003 38.1003 21.5184L30.5537 14.7442C30.3577 14.5669 29.9988 14.4123 29.6318 14.4055Z" fill="url(#paint0_linear_151_60)"/>
<defs>
<linearGradient id="paint0_linear_151_60" x1="0.131836" y1="0.179688" x2="0.131836" y2="42.1797" gradientUnits="userSpaceOnUse">
<stop stop-color="#BD35ED"/>
<stop offset="1" stop-color="#CE2AA0"/>
</linearGradient>
</defs>
</svg>
